<svg fill="#000000" height="256px" width="256px" version="1.1" id="Capa_1" xmlns="http://www.w3.org/2000/svg" xmlns:xlink="http://www.w3.org/1999/xlink" viewBox="-39.31 -39.31 275.18 275.18" xml:space="preserve" stroke="#000000" stroke-width="0.0019656400000000003" transform="matrix(1, 0, 0, 1, 0, 0)"><g id="SVGRepo_bgCarrier" stroke-width="0" transform="translate(0,0), scale(1)"><path transform="translate(-39.31, -39.31), scale(8.599375)" d="M16,29.550396050016083C18.29404429151032,29.163824494626024,20.37093657090875,28.222726033541676,22.405966592331726,27.095459609507415C24.472235240994884,25.950889138235485,26.952053422963676,25.043154761022784,27.977918478380595,22.91545445782443C28.99692957611109,20.8019696382031,27.66888409989798,18.34471315893067,27.755613001684345,16C27.846561099550147,13.541221006453629,29.37882023264146,11.081150095961661,28.500675614248088,8.782731569061681C27.604697124701126,6.437635423228331,25.425908598712887,4.625614819499988,23.074213396757845,3.747102973231012C20.823953201499698,2.9064837309591494,18.401913084015504,4.146456187796568,16,4.112912281105917C13.554779244510133,4.078763561318326,11.020650671199277,2.5006507466646433,8.810780793428425,3.54790706746801C6.599922764058345,4.595631672860715,5.395626678404916,7.128252608141434,4.692423434109422,9.471567625800763C4.055015386856361,11.595630422185351,5.120659930151787,13.782848965730889,5.074043699850639,15.999999999999998C5.026132001103456,18.278765823505264,3.897827134104963,20.46894610141309,4.414525756873887,22.688876672958326C5.013190594661985,25.260964766387055,5.940991941204568,28.141358329137272,8.213223796958717,29.487092010835752C10.485306761619746,30.8327375114983,13.396044961567325,29.989190956068217,16,29.550396050016083" fill="#ffffff" strokewidth="0"></path></g><g id="SVGRepo_tracerCarrier" stroke-linecap="round" stroke-linejoin="round" stroke="#dbdbdb" stroke-width="5.503792"> <path d="M22.792,142.562c8.548,0,15.992,4.708,19.894,11.669c0.238-0.945,0.398-2.141,0.398-3.668V54.068 c0-17.843,5.313-31.032,16.269-38.518c19.706-13.465,38.735-4.096,38.735-4.096c7.972,3.551,13.53,11.536,13.53,20.826 c0,12.588-10.205,22.794-22.794,22.794c-7.199,0-13.617-3.344-17.796-8.558c-0.387,2.201-0.591,4.726-0.591,7.551v96.495 c0,14.748-6.635,23.401-12.202,28.063c-9.504,7.96-22.147,9.657-31.205,9.657c-3.932,0-27.03-1.051-27.03-22.927 C0,152.767,10.206,142.562,22.792,142.562z M183.036,11.454c0,0-19.03-9.369-38.736,4.096 c-10.956,7.485-16.267,20.675-16.267,38.518v96.495c0,1.527-0.161,2.723-0.4,3.668c-3.901-6.961-11.345-11.669-19.893-11.669 c-12.589,0-22.794,10.205-22.794,22.794c0,21.876,23.101,22.927,27.03,22.927c9.058,0,21.702-1.697,31.205-9.657 c5.566-4.661,12.204-13.314,12.204-28.063V54.068c0-2.824,0.205-5.35,0.591-7.551c4.178,5.214,10.594,8.558,17.796,8.558 c12.588,0,22.792-10.206,22.792-22.794C196.564,22.99,191.007,15.005,183.036,11.454z"></path> </g><g id="SVGRepo_iconCarrier"> <path d="M22.792,142.562c8.548,0,15.992,4.708,19.894,11.669c0.238-0.945,0.398-2.141,0.398-3.668V54.068 c0-17.843,5.313-31.032,16.269-38.518c19.706-13.465,38.735-4.096,38.735-4.096c7.972,3.551,13.53,11.536,13.53,20.826 c0,12.588-10.205,22.794-22.794,22.794c-7.199,0-13.617-3.344-17.796-8.558c-0.387,2.201-0.591,4.726-0.591,7.551v96.495 c0,14.748-6.635,23.401-12.202,28.063c-9.504,7.96-22.147,9.657-31.205,9.657c-3.932,0-27.03-1.051-27.03-22.927 C0,152.767,10.206,142.562,22.792,142.562z M183.036,11.454c0,0-19.03-9.369-38.736,4.096 c-10.956,7.485-16.267,20.675-16.267,38.518v96.495c0,1.527-0.161,2.723-0.4,3.668c-3.901-6.961-11.345-11.669-19.893-11.669 c-12.589,0-22.794,10.205-22.794,22.794c0,21.876,23.101,22.927,27.03,22.927c9.058,0,21.702-1.697,31.205-9.657 c5.566-4.661,12.204-13.314,12.204-28.063V54.068c0-2.824,0.205-5.35,0.591-7.551c4.178,5.214,10.594,8.558,17.796,8.558 c12.588,0,22.792-10.206,22.792-22.794C196.564,22.99,191.007,15.005,183.036,11.454z"></path> </g></svg>